HIERARCHY
ROOT Hips
{
	OFFSET 0.000000 8.830580 0.000000
	CHANNELS 6 Xposition Yposition Zposition Zrotation Yrotation Xrotation 
	JOINT Spine
	{
		OFFSET 0.000000 0.010000 0.000000
		CHANNELS 3 Zrotation Yrotation Xrotation
		JOINT Spine1
		{
			OFFSET 0.000000 2.459130 0.000000
			CHANNELS 3 Zrotation Yrotation Xrotation
			JOINT Neck
			{
				OFFSET 0.000000 2.484630 0.000000
				CHANNELS 3 Zrotation Yrotation Xrotation
				JOINT Head_virtual
				{
					OFFSET 0.000000 0.000000 0.000000
					CHANNELS 3 Zrotation Yrotation Xrotation
					JOINT Head
					{
						OFFSET 0.000000 0.927525 0.000000
						CHANNELS 3 Zrotation Yrotation Xrotation
						End Site
						{
							OFFSET 0.000000 0.000000 0.000000
						}
					}
				}
				JOINT LeftUpArm_virtual
				{
					OFFSET 0.000000 0.000000 0.000000
					CHANNELS 3 Zrotation Yrotation Xrotation
					JOINT LeftUpArm
					{
						OFFSET 1.248820 0.000000 0.000000
						CHANNELS 3 Zrotation Yrotation Xrotation
						JOINT LeftForeArm
						{
							OFFSET 2.597580 0.000000 0.000000
							CHANNELS 3 Zrotation Yrotation Xrotation
							JOINT LeftHand
							{
								OFFSET 2.455420 0.000000 0.000000
								CHANNELS 3 Zrotation Yrotation Xrotation
								End Site
								{
									OFFSET 0.000000 0.000000 0.000000
								}
							}
						}
					}
				}
				JOINT RightUpArm_virtual
				{
					OFFSET -0.000000 -0.000000 -0.000000
					CHANNELS 3 Zrotation Yrotation Xrotation
					JOINT RightUpArm
					{
						OFFSET -1.248820 -0.000000 -0.000000
						CHANNELS 3 Zrotation Yrotation Xrotation
						JOINT RightForeArm
						{
							OFFSET -2.597580 -0.000000 -0.000000
							CHANNELS 3 Zrotation Yrotation Xrotation
							JOINT RightHand
							{
								OFFSET -2.455420 -0.000000 -0.000000
								CHANNELS 3 Zrotation Yrotation Xrotation
								End Site
								{
									OFFSET 0.000000 0.000000 0.000000
								}
							}
						}
					}
				}
			}
		}
	}
	JOINT LeftUpLeg
	{
		OFFSET 1.271939 0.000000 0.000000
		CHANNELS 3 Zrotation Yrotation Xrotation
		JOINT LeftLowLeg
		{
			OFFSET 0.000000 -4.342910 0.000000
			CHANNELS 3 Zrotation Yrotation Xrotation
			JOINT LeftFoot
			{
				OFFSET 0.000000 -4.487670 0.000000
				CHANNELS 3 Zrotation Yrotation Xrotation
				JOINT LeftToeBase
				{
					OFFSET 0.000000 0.000000 1.515070
					CHANNELS 3 Zrotation Yrotation Xrotation
					End Site
					{
						OFFSET 0.000000 0.000000 0.000000
					}
				}
			}
		}
	}
	JOINT RightUpLeg
	{
		OFFSET -1.271939 0.000000 0.000000
		CHANNELS 3 Zrotation Yrotation Xrotation
		JOINT RightLowLeg
		{
			OFFSET 0.000000 -4.342910 0.000000
			CHANNELS 3 Zrotation Yrotation Xrotation
			JOINT RightFoot
			{
				OFFSET 0.000000 -4.487670 0.000000
				CHANNELS 3 Zrotation Yrotation Xrotation
				JOINT RightToeBase
				{
					OFFSET 0.000000 0.000000 1.515070
					CHANNELS 3 Zrotation Yrotation Xrotation
					End Site
					{
						OFFSET 0.000000 0.000000 0.000000
					}
				}
			}
		}
	}
}
MOTION
Frames: 7
Frame Time: 0.041667
-18.975988 6.894222 36.893458 -173.381187 -4.346139 153.788571 5.631958 0.106332 23.614743 0.988842 -1.459820 13.754652 0.000000 0.000000 0.000000 10.165314 -2.865068 3.803964 6.913778 21.222773 -104.886465 -32.584900 0.907416 13.064400 -31.804300 -17.979500 30.659401 0.000000 -61.448700 0.000000 49.864300 -18.329800 18.182899 25.962799 1.569610 9.558990 -15.542800 51.140301 -46.069401 180.000000 30.748001 180.000000 -94.132004 22.419701 7.999830 6.429176 7.918486 -38.152216 0.000000 0.000000 61.213200 -11.191387 8.594669 -4.456343 0.000000 0.000000 -43.591801 5.679096 -8.999547 -37.184708 0.000000 0.000000 63.070702 10.053517 -0.193736 4.098723 0.000000 0.000000 -50.853500 
-18.976131 6.895078 36.892838 -173.354258 -4.317742 153.758872 5.804309 0.210521 23.548468 0.941058 -1.263615 13.883644 0.000000 0.000000 0.000000 10.583111 -3.349823 4.039681 6.290647 21.299436 -105.261790 -32.378700 1.013650 12.905700 -32.942200 -18.423000 30.208300 0.000000 -60.567200 0.000000 50.596199 -18.259300 17.782200 26.143400 1.561420 9.820007 -16.689199 51.367298 -46.321400 180.000000 31.376999 180.000000 -95.179901 24.026800 6.721210 6.364107 8.397246 -38.199570 0.000000 0.000000 61.560501 -10.810291 8.150385 -5.978301 0.000000 0.000000 -43.592699 5.820048 -9.298064 -37.205275 0.000000 0.000000 63.510502 9.296824 -0.770698 1.943076 0.000000 0.000000 -50.585602 
-18.976002 6.894976 36.892520 -173.340537 -4.332791 153.746687 5.979247 0.267794 23.499572 0.798104 -1.111023 13.974581 0.000000 0.000000 0.000000 10.943902 -3.675083 4.163056 5.796832 21.404104 -105.486942 -32.107800 1.140880 12.999700 -33.799999 -19.031000 29.812401 0.000000 -59.738800 0.000000 51.413700 -18.134501 17.645700 26.130199 1.556240 10.019989 -17.701500 51.816601 -46.580601 180.000000 31.485001 180.000000 -96.517899 24.087700 5.311270 6.285230 8.773118 -38.290224 0.000000 0.000000 61.932800 -10.507931 7.804514 -7.303111 0.000000 0.000000 -44.152201 5.883820 -9.567185 -37.224520 0.000000 0.000000 63.846901 9.439348 -0.532115 0.313514 0.000000 0.000000 -51.326801 
-18.974507 6.895357 36.893272 -173.365379 -4.323753 153.769322 6.076815 0.362517 23.469399 0.684087 -0.970126 14.012249 0.000000 0.000000 0.000000 11.266569 -3.893682 4.223512 5.432464 21.519166 -105.580868 -31.863199 1.200190 12.969900 -34.369598 -19.490101 29.791599 0.000000 -58.986301 0.000000 52.152000 -18.115999 17.342600 26.153000 1.550090 10.216003 -18.884100 52.248798 -46.931702 -180.000000 31.591995 -180.000000 -98.591698 23.753799 2.369860 6.194823 9.224618 -38.346933 0.000000 0.000000 62.163799 -10.314851 7.567023 -8.718509 0.000000 0.000000 -44.179100 5.955015 -9.825268 -37.279639 0.000000 0.000000 64.163696 8.943092 -0.515352 -1.467459 0.000000 0.000000 -51.125401 
-18.972987 6.894861 36.894561 -173.362844 -4.371182 153.946389 6.195774 0.419498 23.311762 0.522658 -0.850920 13.955270 0.000000 0.000000 0.000000 11.682128 -4.142466 4.364877 5.155502 21.631119 -105.529982 -31.647800 1.176730 12.964500 -34.496799 -19.765400 30.113600 0.000000 -58.534199 0.000000 52.757000 -17.909000 17.173800 26.225700 1.604800 10.528992 -20.076799 52.421200 -47.703201 180.000000 32.087006 180.000000 -100.056999 24.916800 0.377224 6.099546 9.557632 -38.558594 0.000000 0.000000 62.364201 -10.261863 7.411201 -10.217663 0.000000 0.000000 -44.177500 6.025816 -10.058720 -37.492472 0.000000 0.000000 64.473000 8.633124 -0.294999 -3.122741 0.000000 0.000000 -51.178902 
-18.969237 6.895331 36.894638 -173.437765 -4.385632 154.006463 6.159627 0.559285 23.300576 0.508852 -0.745966 13.910703 0.000000 0.000000 0.000000 12.016370 -4.356141 4.441557 4.769661 21.748818 -105.592389 -31.493500 1.087410 12.984800 -34.331799 -19.971399 30.623400 0.000000 -58.282600 0.000000 53.256500 -17.791599 16.773899 26.275200 1.526560 10.683990 -21.124201 52.707100 -48.416801 -180.000000 32.526001 -180.000000 -101.498001 25.607599 -1.534410 5.976409 9.987398 -38.609971 0.000000 0.000000 62.554199 -10.178313 7.380525 -11.597201 0.000000 0.000000 -44.000799 6.023391 -10.177142 -37.570513 0.000000 0.000000 64.751999 8.318549 -0.193627 -4.473626 0.000000 0.000000 -51.617599 
-18.964596 6.896183 36.895162 -173.475955 -4.465062 154.081118 6.082402 0.678799 23.278931 0.604700 -0.680396 13.866697 0.000000 0.000000 0.000000 12.272249 -4.524034 4.481880 4.498123 21.845796 -105.688040 -31.278799 0.970073 13.328400 -34.063702 -20.427401 31.036800 0.000000 -58.000301 0.000000 53.788300 -17.730301 16.205700 26.219601 1.462080 10.803986 -21.851900 52.891998 -49.082699 180.000000 33.199005 180.000000 -102.661003 27.025700 -3.371070 5.870709 10.326123 -38.691644 0.000000 0.000000 62.723900 -10.116345 7.339823 -12.816484 0.000000 0.000000 -43.866600 6.018879 -10.304840 -37.630947 0.000000 0.000000 64.928200 8.189023 -0.155359 -5.680321 0.000000 0.000000 -52.021999 
